# xmcd CD database file
# Copyright (C) 1995-1998 Ti Kan
#
# Track frame offsets:
#	150
#	25022
#	41495
#	58935
#	76445
#	85602
#	100147
#	122740
#	147017
#	173440
#
# Disc length: 2369 seconds
#
# Revision: 1
# Processed by: cddbd v1.4b41PL3 Copyright (c) Steve Scherf et al.
# Submitted via: CDex 1.30
#
DISCID=72093f0a
DTITLE=Mike Esposito - The Mike Esposito Trio Live
DYEAR=2001
DGENRE=Blues
TTITLE0=Driftin' and Driftin'
TTITLE1=Ghostriders In the Sky
TTITLE2=What's the Matter Now?
TTITLE3=Sleepwalk
TTITLE4=Perfidia
TTITLE5=Slide2k
TTITLE6=Hey Joe
TTITLE7=St. James Infirmary
TTITLE8=House of the Rising Sun
TTITLE9=Dobro Train
EXTD=\nYEAR: 2001  ID3G:   0
EXTT0=
EXTT1=
EXTT2=
EXTT3=
EXTT4=
EXTT5=
EXTT6=
EXTT7=
EXTT8=
EXTT9=
PLAYORDER=
